[Header]
FileType HTR
DataType HTRS
FileVersion 1
NumSegments 22
NumFrames 8
DataFrameRate 24
EulerRotationOrder ZYX
CalibrationUnits mm
RotationUnits Degrees
GlobalAxisofGravity Y
BoneLengthAxis Y
ScaleFactor 1.0
[SegmentNames&Hierarchy]
reference	GLOBAL
Hips	reference
Spine	Hips
Spine1	Spine
Neck	Spine1
Head	Neck
LeftShoulder	Spine1
LeftArm	LeftShoulder
LeftForeArm	LeftArm
LeftHand	LeftForeArm
RightShoulder	Spine1
RightArm	RightShoulder
RightForeArm	RightArm
RightHand	RightForeArm
LeftUpLeg	Hips
LeftLeg	LeftUpLeg
LeftFoot	LeftLeg
LeftToeBase	LeftFoot
RightUpLeg	Hips
RightLeg	RightUpLeg
RightFoot	RightLeg
RightToeBase	RightFoot
[BasePosition]
reference	0	0	0	0	0	0	1
Hips	0	0	0	0	0	0	1
Spine	0	0	0	0	-0	90	1
Spine1	0	0	0	0	0	0	1
Neck	0	0	0	-7.352430803	-7.352430803	90	1
Head	0	0	0	0	-0	90	1
LeftShoulder	0	0	0	0	0	0	1
LeftArm	0	0	0	0	0	0	1
LeftForeArm	0	0	0	0	0	0	1
LeftHand	0	0	0	0	0	0	1
RightShoulder	0	0	0	0	-0	180	1
RightArm	0	0	0	0	-0	180	1
RightForeArm	0	0	0	0	-0	180	1
RightHand	0	0	0	0	-0	180	1
LeftUpLeg	0	0	0	0	-0	-90	1
LeftLeg	0	0	0	0	-0	-90	1
LeftFoot	0	0	0	66.57150701	-66.57150701	-90	1
LeftToeBase	0	0	0	0	-90	0	1
RightUpLeg	0	0	0	0	-0	-90	1
RightLeg	0	0	0	0	-0	-90	1
RightFoot	0	0	0	66.57150701	-66.57150701	-90	1
RightToeBase	0	0	0	0	-90	0	1
[reference]
19	0	0	0	0	-0	0	1.0
20	0	0	0	0	-0	0	1.0
21	0	0	0	0	-0	0	1.0
22	0	0	0	0	-0	0	1.0
23	0	0	0	0	-0	0	1.0
24	0	0	0	0	-0	0	1.0
25	0	0	0	0	-0	0	1.0
26	0	0	0	0	-0	0	1.0
[Hips]
19	5.862030029	8.278731346	0.9829073548	8.22315979	-101.0864868	-5.173339844	1.0
20	5.751628876	8.254905701	0.9515763521	9.083609581	-100.3159637	-5.996299744	1.0
21	5.569642067	8.232320786	0.9190756679	9.819608688	-99.1596756	-6.943732262	1.0
22	5.333519459	8.191077232	0.8802354336	12.19395256	-98.28074646	-10.57081985	1.0
23	5.092106342	8.1420784	0.8426500559	12.26517582	-95.70735168	-10.92404938	1.0
24	4.794773102	8.069570541	0.8015613556	10.93542671	-93.24829102	-10.18515396	1.0
25	4.43501997	7.976799011	0.7540769577	-53.57626343	-90.27189636	53.33476257	1.0
26	4.014912128	7.857837677	0.7053092122	15.28257751	-86.22611237	-16.92493248	1.0
[Spine]
19	0	0.7478299737	0	-5.973484993	-2.599275112	-90.00210571	1.0
20	0	0.7478299737	0	-6.52256012	-1.634339809	-90.42201996	1.0
21	0	0.7478299737	0	-6.529139519	-1.321366906	-90.15389252	1.0
22	0	0.7478299737	0	-6.24216795	-0.6819714904	-90.17628479	1.0
23	0	0.7478299737	0	-6.261680603	0.1060596108	-90.03577423	1.0
24	0	0.7478299737	0	-6.259962559	1.31660533	-89.799263	1.0
25	0	0.7478299737	0	-6.460216045	2.655736446	-89.23697662	1.0
26	0	0.7478299737	0	-6.611356735	4.189319611	-88.75130463	1.0
[Spine1]
19	0	2.049309969	0	7.748528481	-0.6550821066	-3.381634712	1.0
20	0	2.049309969	0	7.854827404	-0.4176830649	-3.176662922	1.0
21	0	2.049309969	0	7.644090652	-0.222137183	-3.211666584	1.0
22	0	2.049309969	0	7.29526186	0.1429277956	-3.32630229	1.0
23	0	2.049309969	0	6.58866787	0.2683284879	-3.504724503	1.0
24	0	2.049309969	0	6.296874523	0.6505847573	-3.898266792	1.0
25	0	2.049309969	0	5.91338253	1.10535419	-4.497731209	1.0
26	0	2.049309969	0	5.343805313	1.650555134	-5.51221323	1.0
[Neck]
19	0	2.231709957	0	-0.4058195353	8.332609177	-87.01125336	1.0
20	0	2.231709957	0	-0.1389328837	7.73575449	-87.74854279	1.0
21	0	2.231709957	0	0.161758408	7.118429184	-88.68856049	1.0
22	0	2.231709957	0	0.4157009721	6.42589283	-89.78620148	1.0
23	0	2.231709957	0	0.3842704892	5.626522064	-91.28317261	1.0
24	0	2.231709957	0	0.8937392235	4.340109825	-92.53778076	1.0
25	0	2.231709957	0	1.632787228	2.658173323	-93.70030975	1.0
26	0	2.231709957	0	3.435533047	0.5974693298	-94.5388031	1.0
[Head]
19	0	1.413589954	0.1823999882	-11.41189384	1.34700942	-96.1342392	1.0
20	0	1.413589954	0.1823999882	-11.60247803	0.6780400276	-95.53973389	1.0
21	0	1.413589954	0.1823999882	-11.11690331	0.001602545381	-94.83831024	1.0
22	0	1.413589954	0.1823999882	-9.47418499	-0.7488263845	-93.82722473	1.0
23	0	1.413589954	0.1823999882	-8.116827011	-1.706633806	-92.24017334	1.0
24	0	1.413589954	0.1823999882	-7.770870209	-3.205679417	-90.57754517	1.0
25	0	1.413589954	0.1823999882	-6.862651825	-5.152285099	-88.67908478	1.0
26	0	1.413589954	0.1823999882	-6.2776618	-7.540474892	-86.61506653	1.0
[LeftShoulder]
19	0.3649300039	1.825889945	-0.04271000251	-11.67393208	-7.863446712	5.894987106	1.0
20	0.3649300039	1.825889945	-0.04271000251	-9.638916016	-7.691966534	5.219857216	1.0
21	0.3649300039	1.825889945	-0.04271000251	-9.256175041	-7.1628232	5.551012993	1.0
22	0.3649300039	1.825889945	-0.04271000251	-8.904694557	-6.582044601	5.996552467	1.0
23	0.3649300039	1.825889945	-0.04271000251	-8.931432724	-5.801738262	6.365281582	1.0
24	0.3649300039	1.825889945	-0.04271000251	-9.287910461	-4.902220249	6.916082382	1.0
25	0.3649300039	1.825889945	-0.04271000251	-9.388805389	-3.668018103	7.759178162	1.0
26	0.3649300039	1.825889945	-0.04271000251	-9.266987801	-2.638250113	8.30789566	1.0
[LeftArm]
19	1.24003005	0	0	34.02810669	14.80062008	-76.29589844	1.0
20	1.24003005	0	0	32.21842575	14.06483459	-74.35910797	1.0
21	1.24003005	0	0	30.50118446	14.92650032	-73.54548645	1.0
22	1.24003005	0	0	30.03462601	14.93954468	-72.409935	1.0
23	1.24003005	0	0	31.46959877	14.44492149	-71.64517212	1.0
24	1.24003005	0	0	33.15464401	13.22295284	-70.51186371	1.0
25	1.24003005	0	0	35.09936523	10.66977406	-69.18128204	1.0
26	1.24003005	0	0	38.08440018	6.418847084	-66.30226898	1.0
[LeftForeArm]
19	2.847419977	0	0	-13.60953617	-57.54810333	6.561623096	1.0
20	2.847419977	0	0	-19.13409615	-69.70726013	13.06453228	1.0
21	2.847419977	0	0	-36.88456726	-80.94997406	31.32691383	1.0
22	2.847419977	0	0	-132.7304077	-84.26527405	127.3233948	1.0
23	2.847419977	0	0	-159.2187805	-75.53995514	155.7600861	1.0
24	2.847419977	0	0	-165.5644073	-67.01104736	163.6352844	1.0
25	2.847419977	0	0	-169.8235626	-60.31335449	168.1726837	1.0
26	2.847419977	0	0	-172.7120209	-55.51974487	171.171402	1.0
[LeftHand]
19	2.258270025	0	0	-9.46617794	-12.27346516	-4.995558262	1.0
20	2.258270025	0	0	-9.380867958	-11.68820381	-6.293313026	1.0
21	2.258270025	0	0	-9.148197174	-11.97785187	-8.225120544	1.0
22	2.258270025	0	0	-9.141592026	-12.25568581	-8.672954559	1.0
23	2.258270025	0	0	-9.150777817	-12.93826962	-9.235610008	1.0
24	2.258270025	0	0	-8.997600555	-13.16245937	-9.300273895	1.0
25	2.258270025	0	0	-8.860707283	-13.74544716	-9.768796921	1.0
26	2.258270025	0	0	-8.310108185	-13.77547264	-8.962076187	1.0
[RightShoulder]
19	-0.3646599948	1.825889945	-0.04271000251	-7.962250233	7.58332777	175.8835297	1.0
20	-0.3646599948	1.825889945	-0.04271000251	-8.107120514	7.650351524	175.4365692	1.0
21	-0.3646599948	1.825889945	-0.04271000251	-8.290811539	7.860007763	174.9768219	1.0
22	-0.3646599948	1.825889945	-0.04271000251	-8.182394981	8.164678574	174.5900574	1.0
23	-0.3646599948	1.825889945	-0.04271000251	-8.409373283	8.682053566	174.1836548	1.0
24	-0.3646599948	1.825889945	-0.04271000251	-8.975225449	9.043142319	173.4704437	1.0
25	-0.3646599948	1.825889945	-0.04271000251	-9.257180214	9.438973427	172.5500336	1.0
26	-0.3646599948	1.825889945	-0.04271000251	-9.396776199	10.10420513	171.3158264	1.0
[RightArm]
19	-1.24003005	0	0	50.18284988	-5.308405876	-99.23921204	1.0
20	-1.24003005	0	0	51.02190781	-5.252101898	-100.4863129	1.0
21	-1.24003005	0	0	50.96248627	-4.844873428	-102.0712433	1.0
22	-1.24003005	0	0	52.26972198	-4.038900375	-103.4964142	1.0
23	-1.24003005	0	0	53.79873276	-3.376674652	-104.8029633	1.0
24	-1.24003005	0	0	54.73194885	-2.694188118	-105.4544678	1.0
25	-1.24003005	0	0	55.02850723	-1.976834297	-105.6771088	1.0
26	-1.24003005	0	0	54.5109024	-2.039453506	-105.3844757	1.0
[RightForeArm]
19	-2.847419977	0	0	-9.577453613	48.54465866	162.5113525	1.0
20	-2.847419977	0	0	-16.69566154	57.15476227	153.3349304	1.0
21	-2.847419977	0	0	-28.06250572	66.25749969	139.6796112	1.0
22	-2.847419977	0	0	-53.49330139	71.55523682	111.3604965	1.0
23	-2.847419977	0	0	-84.25106049	69.64698792	76.35784149	1.0
24	-2.847419977	0	0	-100.8392334	63.88034058	54.95216751	1.0
25	-2.847419977	0	0	-108.6936951	57.99628067	42.69308472	1.0
26	-2.847419977	0	0	-113.9373169	52.45381165	33.88876343	1.0
[RightHand]
19	-2.258270025	0	0	-2.156608343	13.78722286	175.8058472	1.0
20	-2.258270025	0	0	-2.428505898	13.86251068	176.5593872	1.0
21	-2.258270025	0	0	-1.34924531	13.91793442	178.1228485	1.0
22	-2.258270025	0	0	-1.390265703	13.95200443	177.549118	1.0
23	-2.258270025	0	0	-1.570423126	13.78775215	177.2806091	1.0
24	-2.258270025	0	0	-0.8992143869	13.61859131	176.7827759	1.0
25	-2.258270025	0	0	0.4782516658	13.36811829	176.1918793	1.0
26	-2.258270025	0	0	2.128259897	12.69394112	175.9468842	1.0
[LeftUpLeg]
19	0.9119900465	0	0	-23.78251839	-5.348059177	94.06396484	1.0
20	0.9119900465	0	0	-28.60263062	-2.812179565	94.61743927	1.0
21	0.9119900465	0	0	-31.04726982	-3.16659832	95.61151123	1.0
22	0.9119900465	0	0	-32.50830841	-4.899120331	96.98554993	1.0
23	0.9119900465	0	0	-33.43667221	-5.517595291	97.81028748	1.0
24	0.9119900465	0	0	-33.33599854	-4.420702934	97.07281494	1.0
25	0.9119900465	0	0	-33.16971588	-3.175885916	96.91029358	1.0
26	0.9119900465	0	0	-32.75671387	-0.3555083871	95.88752747	1.0
[LeftLeg]
19	0	-4.371409893	0	57.23484802	1.835280657	66.72822571	1.0
20	0	-4.371409893	0	61.65037537	1.550277948	61.07283401	1.0
21	0	-4.371409893	0	60.43314743	1.216830254	58.1136055	1.0
22	0	-4.371409893	0	54.94646454	1.29910779	57.17421341	1.0
23	0	-4.371409893	0	48.42537308	-0.02553582191	56.94499207	1.0
24	0	-4.371409893	0	42.36287689	-3.107995749	57.28434753	1.0
25	0	-4.371409893	0	38.37903214	-2.513448	55.66710663	1.0
26	0	-4.371409893	0	40.83104706	3.082187176	53.45277786	1.0
[LeftFoot]
19	0	-3.918009996	0	-59.43615341	121.7461777	-3.077786446	1.0
20	0	-3.918009996	0	-54.42377853	123.8003311	1.016115904	1.0
21	0	-3.918009996	0	-52.71113586	123.6120377	3.445236206	1.0
22	0	-3.918009996	0	-52.14429092	123.6806641	6.25729084	1.0
23	0	-3.918009996	0	-54.2209816	124.0351563	6.150790215	1.0
24	0	-3.918009996	0	-57.60337448	122.4741135	4.352908134	1.0
25	0	-3.918009996	0	-58.66325378	124.2776184	3.220474243	1.0
26	0	-3.918009996	0	-61.12802124	131.9567719	-1.3600142	1.0
[LeftToeBase]
19	0	-0.5927900076	1.367989898	0	0	0	1.0
20	0	-0.5927900076	1.367989898	0	0	0	1.0
21	0	-0.5927900076	1.367989898	0	0	0	1.0
22	0	-0.5927900076	1.367989898	0	0	0	1.0
23	0	-0.5927900076	1.367989898	0	0	0	1.0
24	0	-0.5927900076	1.367989898	0	0	0	1.0
25	0	-0.5927900076	1.367989898	0	0	0	1.0
26	0	-0.5927900076	1.367989898	0	0	0	1.0
[RightUpLeg]
19	-0.9119900465	0	0	7.984550476	-17.91628265	90.28709412	1.0
20	-0.9119900465	0	0	8.280015945	-18.72945023	90.18409729	1.0
21	-0.9119900465	0	0	10.76902199	-20.00209808	89.74087524	1.0
22	-0.9119900465	0	0	13.37292099	-21.21840858	89.07079315	1.0
23	-0.9119900465	0	0	16.3056488	-22.90746498	88.60088348	1.0
24	-0.9119900465	0	0	19.94608116	-24.97118759	87.90744781	1.0
25	-0.9119900465	0	0	24.64651871	-27.23296547	87.47537994	1.0
26	-0.9119900465	0	0	30.51329803	-31.41983414	86.07951355	1.0
[RightLeg]
19	0	-4.371409893	0	3.940814495	-3.799922943	91.98668671	1.0
20	0	-4.371409893	0	4.334000587	-3.645497084	91.69975281	1.0
21	0	-4.371409893	0	3.911581516	-3.790221214	91.72573853	1.0
22	0	-4.371409893	0	3.803315163	-4.263038635	91.46182251	1.0
23	0	-4.371409893	0	3.683941603	-4.521924019	91.20352173	1.0
24	0	-4.371409893	0	3.586254597	-4.669661999	90.88905334	1.0
25	0	-4.371409893	0	2.902303934	-5.284193039	90.58470154	1.0
26	0	-4.371409893	0	2.805819511	-6.096729755	89.55337524	1.0
[RightFoot]
19	0	-3.918009996	0	16.66976929	60.96258163	77.67953491	1.0
20	0	-3.918009996	0	17.32901955	60.50422287	79.50048065	1.0
21	0	-3.918009996	0	17.47461319	60.71373749	79.06329346	1.0
22	0	-3.918009996	0	18.88525391	60.21398163	80.78846741	1.0
23	0	-3.918009996	0	20.1491127	59.46438599	82.31575012	1.0
24	0	-3.918009996	0	21.93388748	58.62773514	84.39137268	1.0
25	0	-3.918009996	0	25.63451195	57.36833572	87.2444458	1.0
26	0	-3.918009996	0	32.95664978	55.84749222	93.12239075	1.0
[RightToeBase]
19	0	-0.5927900076	1.367989898	0	0	0	1.0
20	0	-0.5927900076	1.367989898	0	0	0	1.0
21	0	-0.5927900076	1.367989898	0	0	0	1.0
22	0	-0.5927900076	1.367989898	0	0	0	1.0
23	0	-0.5927900076	1.367989898	0	0	0	1.0
24	0	-0.5927900076	1.367989898	0	0	0	1.0
25	0	-0.5927900076	1.367989898	0	0	0	1.0
26	0	-0.5927900076	1.367989898	0	0	0	1.0
[EndOfFile]
